<svg xmlns="http://www.w3.org/2000/svg" viewBox="0 0 1200 860" role="img" aria-labelledby="svg-title svg-desc">
<title id="svg-title">Prospective DE-LU forecast track record</title>
<desc id="svg-desc">Source-derived prospective record from 3 August 2026 to 15 September 2026, with 36 scored delivery days and 864 scored hours. The sample is still accumulating.</desc>
<rect x="0" y="0" width="1200" height="860" fill="#fffdf9" stroke="#fffdf9" stroke-width="0" />
<text x="48" y="44" fill="#1f2933" font-family="system-ui, -apple-system, BlinkMacSystemFont, &#x27;Segoe UI&#x27;, sans-serif" font-size="25px" font-weight="650">Prospective DE-LU forecast track record</text>
<text x="48" y="70" fill="#5b6770" font-family="system-ui, -apple-system, BlinkMacSystemFont, &#x27;Segoe UI&#x27;, sans-serif" font-size="13px">Sealed before auction close · scored after settlement</text>
<text x="48" y="96" fill="#1f2933" font-family="system-ui, -apple-system, BlinkMacSystemFont, &#x27;Segoe UI&#x27;, sans-serif" font-size="12px" font-weight="550">Early prospective record · 36 scored days · 864 hours · through 15 September 2026 · 8 missed days</text>
<rect x="48" y="126" width="1104" height="326" fill="#fffdf9" stroke="#d8d9d6" stroke-width="1" />
<rect x="48" y="482" width="535" height="298" fill="#fffdf9" stroke="#d8d9d6" stroke-width="1" />
<rect x="617" y="482" width="535" height="298" fill="#fffdf9" stroke="#d8d9d6" stroke-width="1" />
<text x="70" y="157" fill="#1f2933" font-family="system-ui, -apple-system, BlinkMacSystemFont, &#x27;Segoe UI&#x27;, sans-serif" font-size="15px" font-weight="650">Panel A · Price forecast error</text>
<text x="70" y="178" fill="#5b6770" font-family="system-ui, -apple-system, BlinkMacSystemFont, &#x27;Segoe UI&#x27;, sans-serif" font-size="11px">Cumulative hourly MAE · lower is better</text>
<text x="540" y="157" fill="#5b6770" font-family="system-ui, -apple-system, BlinkMacSystemFont, &#x27;Segoe UI&#x27;, sans-serif" font-size="11px" text-anchor="end">36 scored days · 864 scored hours</text>
<text x="70" y="196" fill="#5b6770" font-family="system-ui, -apple-system, BlinkMacSystemFont, &#x27;Segoe UI&#x27;, sans-serif" font-size="11px">B1: same hour, seven days prior (D-7 persistence) · B2: same hour, one day prior (D-1 persistence)</text>
<line x1="112" y1="394" x2="850" y2="394" stroke="#e8e8e4" stroke-width="0.8" />
<text x="100" y="398" fill="#5b6770" font-family="system-ui, -apple-system, BlinkMacSystemFont, &#x27;Segoe UI&#x27;, sans-serif" font-size="11px" text-anchor="end">0</text>
<line x1="112" y1="350" x2="850" y2="350" stroke="#e8e8e4" stroke-width="0.8" />
<text x="100" y="354" fill="#5b6770" font-family="system-ui, -apple-system, BlinkMacSystemFont, &#x27;Segoe UI&#x27;, sans-serif" font-size="11px" text-anchor="end">15</text>
<line x1="112" y1="306" x2="850" y2="306" stroke="#e8e8e4" stroke-width="0.8" />
<text x="100" y="310" fill="#5b6770" font-family="system-ui, -apple-system, BlinkMacSystemFont, &#x27;Segoe UI&#x27;, sans-serif" font-size="11px" text-anchor="end">30</text>
<line x1="112" y1="262" x2="850" y2="262" stroke="#e8e8e4" stroke-width="0.8" />
<text x="100" y="266" fill="#5b6770" font-family="system-ui, -apple-system, BlinkMacSystemFont, &#x27;Segoe UI&#x27;, sans-serif" font-size="11px" text-anchor="end">45</text>
<line x1="112" y1="218" x2="850" y2="218" stroke="#e8e8e4" stroke-width="0.8" />
<text x="100" y="222" fill="#5b6770" font-family="system-ui, -apple-system, BlinkMacSystemFont, &#x27;Segoe UI&#x27;, sans-serif" font-size="11px" text-anchor="end">60</text>
<line x1="112" y1="218" x2="112" y2="394" stroke="#d8d9d6" stroke-width="1" />
<line x1="112" y1="394" x2="850" y2="394" stroke="#d8d9d6" stroke-width="1" />
<line x1="112" y1="394" x2="112" y2="398" stroke="#d8d9d6" stroke-width="1" />
<text x="112" y="416" fill="#5b6770" font-family="system-ui, -apple-system, BlinkMacSystemFont, &#x27;Segoe UI&#x27;, sans-serif" font-size="11px" text-anchor="middle">3 Aug</text>
<line x1="470.46" y1="394" x2="470.46" y2="398" stroke="#d8d9d6" stroke-width="1" />
<text x="470.46" y="416" fill="#5b6770" font-family="system-ui, -apple-system, BlinkMacSystemFont, &#x27;Segoe UI&#x27;, sans-serif" font-size="11px" text-anchor="middle">20 Aug</text>
<line x1="850" y1="394" x2="850" y2="398" stroke="#d8d9d6" stroke-width="1" />
<text x="850" y="416" fill="#5b6770" font-family="system-ui, -apple-system, BlinkMacSystemFont, &#x27;Segoe UI&#x27;, sans-serif" font-size="11px" text-anchor="middle">15 Sep</text>
<text x="481" y="442" fill="#5b6770" font-family="system-ui, -apple-system, BlinkMacSystemFont, &#x27;Segoe UI&#x27;, sans-serif" font-size="11px" text-anchor="middle">scored delivery date</text>
<text x="50" y="306" fill="#5b6770" font-family="system-ui, -apple-system, BlinkMacSystemFont, &#x27;Segoe UI&#x27;, sans-serif" font-size="11px" text-anchor="middle" transform="rotate(-90 50 306)">cumulative MAE (EUR/MWh)</text>
<path d="M 112 323.48 L 133.09 334.47 L 154.17 332.21 L 175.26 340.1 L 196.34 340.03 L 217.43 337.17 L 238.51 340.19 L 259.6 342.52 L 280.69 342.04 L 301.77 340.63 L 322.86 337.87 L 343.94 339.36 L 365.03 342.21 L 386.11 341.39 L 407.2 339.18 L 428.29 339.17 L 449.37 336.05 L 470.46 337.55 L 491.54 336.46 L 512.63 337.24 L 533.71 336.63 L 554.8 335.33 L 575.89 335.35 L 596.97 334.33 L 618.06 334.2 L 639.14 335.64 L 660.23 334.2 L 681.31 332.2 L 702.4 331.37 L 723.49 331.67 L 744.57 330.82 L 765.66 326.74 L 786.74 323.86 L 807.83 321.42 L 828.91 319.57 L 850 318.43" fill="none" stroke="#0b5563" stroke-width="2.4" stroke-linecap="round" stroke-linejoin="round" />
<circle cx="850" cy="318.43" r="3" fill="#0b5563" />
<path d="M 112 244.18 L 133.09 266.96 L 154.17 291.64 L 175.26 298.47 L 196.34 301.9 L 217.43 307 L 238.51 314.41 L 259.6 319.24 L 280.69 314.7 L 301.77 314.22 L 322.86 308.36 L 343.94 310.78 L 365.03 312.44 L 386.11 309.13 L 407.2 303.29 L 428.29 299.14 L 449.37 296.98 L 470.46 296.39 L 491.54 295.09 L 512.63 297.28 L 533.71 294.55 L 554.8 294.2 L 575.89 295.49 L 596.97 297.88 L 618.06 298.9 L 639.14 297.57 L 660.23 297.67 L 681.31 296.17 L 702.4 297.91 L 723.49 299.1 L 744.57 296.4 L 765.66 289.71 L 786.74 284.35 L 807.83 282.53 L 828.91 277.28 L 850 277.77" fill="none" stroke="#9a4f00" stroke-width="2.4" stroke-linecap="round" stroke-linejoin="round" />
<circle cx="850" cy="277.77" r="3" fill="#9a4f00" />
<path d="M 112 293.36 L 133.09 311.86 L 154.17 298.34 L 175.26 313.37 L 196.34 313.29 L 217.43 312.7 L 238.51 320.24 L 259.6 319.54 L 280.69 323.37 L 301.77 322.22 L 322.86 325.74 L 343.94 327.83 L 365.03 327.27 L 386.11 328.24 L 407.2 324.69 L 428.29 326.62 L 449.37 329.95 L 470.46 330.5 L 491.54 330.47 L 512.63 323.54 L 533.71 322.77 L 554.8 318.2 L 575.89 320.01 L 596.97 321.35 L 618.06 320.95 L 639.14 318.38 L 660.23 314.08 L 681.31 311.84 L 702.4 312.8 L 723.49 312.68 L 744.57 310.6 L 765.66 310.31 L 786.74 306.89 L 807.83 305.61 L 828.91 300.55 L 850 296.76" fill="none" stroke="#5e477e" stroke-width="2.4" stroke-linecap="round" stroke-linejoin="round" />
<circle cx="850" cy="296.76" r="3" fill="#5e477e" />
<text x="870" y="322.43" fill="#0b5563" font-family="system-ui, -apple-system, BlinkMacSystemFont, &#x27;Segoe UI&#x27;, sans-serif" font-size="12px" font-weight="600">Model (v1) · 25.76</text>
<text x="870" y="281.77" fill="#9a4f00" font-family="system-ui, -apple-system, BlinkMacSystemFont, &#x27;Segoe UI&#x27;, sans-serif" font-size="12px" font-weight="600">B1 · same-hour 7-day · 39.63</text>
<text x="870" y="300.76" fill="#5e477e" font-family="system-ui, -apple-system, BlinkMacSystemFont, &#x27;Segoe UI&#x27;, sans-serif" font-size="12px" font-weight="600">B2 · same-hour previous-day · 33.15</text>
<text x="70" y="513" fill="#1f2933" font-family="system-ui, -apple-system, BlinkMacSystemFont, &#x27;Segoe UI&#x27;, sans-serif" font-size="15px" font-weight="650">Panel B · Negative-price probability</text>
<text x="70" y="534" fill="#5b6770" font-family="system-ui, -apple-system, BlinkMacSystemFont, &#x27;Segoe UI&#x27;, sans-serif" font-size="11px">Cumulative Brier score · lower is better</text>
<text x="540" y="534" fill="#5b6770" font-family="system-ui, -apple-system, BlinkMacSystemFont, &#x27;Segoe UI&#x27;, sans-serif" font-size="11px" text-anchor="end">864 evaluated hours · 45 negative · 76 below EUR 10</text>
<text x="70" y="549" fill="#1f2933" font-family="system-ui, -apple-system, BlinkMacSystemFont, &#x27;Segoe UI&#x27;, sans-serif" font-size="11px">Support reached: 45 negative-price hours; window open through 31 October 2026.</text>
<text x="70" y="563" fill="#5b6770" font-family="system-ui, -apple-system, BlinkMacSystemFont, &#x27;Segoe UI&#x27;, sans-serif" font-size="10px">Descriptive early sample; no reliable forecasting claim is made before the gates.</text>
<line x1="104" y1="690" x2="420" y2="690" stroke="#e8e8e4" stroke-width="0.8" />
<text x="92" y="694" fill="#5b6770" font-family="system-ui, -apple-system, BlinkMacSystemFont, &#x27;Segoe UI&#x27;, sans-serif" font-size="11px" text-anchor="end">0.000</text>
<line x1="104" y1="663.75" x2="420" y2="663.75" stroke="#e8e8e4" stroke-width="0.8" />
<text x="92" y="667.75" fill="#5b6770" font-family="system-ui, -apple-system, BlinkMacSystemFont, &#x27;Segoe UI&#x27;, sans-serif" font-size="11px" text-anchor="end">0.022</text>
<line x1="104" y1="637.5" x2="420" y2="637.5" stroke="#e8e8e4" stroke-width="0.8" />
<text x="92" y="641.5" fill="#5b6770" font-family="system-ui, -apple-system, BlinkMacSystemFont, &#x27;Segoe UI&#x27;, sans-serif" font-size="11px" text-anchor="end">0.045</text>
<line x1="104" y1="611.25" x2="420" y2="611.25" stroke="#e8e8e4" stroke-width="0.8" />
<text x="92" y="615.25" fill="#5b6770" font-family="system-ui, -apple-system, BlinkMacSystemFont, &#x27;Segoe UI&#x27;, sans-serif" font-size="11px" text-anchor="end">0.068</text>
<line x1="104" y1="585" x2="420" y2="585" stroke="#e8e8e4" stroke-width="0.8" />
<text x="92" y="589" fill="#5b6770" font-family="system-ui, -apple-system, BlinkMacSystemFont, &#x27;Segoe UI&#x27;, sans-serif" font-size="11px" text-anchor="end">0.090</text>
<line x1="104" y1="585" x2="104" y2="690" stroke="#d8d9d6" stroke-width="1" />
<line x1="104" y1="690" x2="420" y2="690" stroke="#d8d9d6" stroke-width="1" />
<line x1="104" y1="690" x2="104" y2="694" stroke="#d8d9d6" stroke-width="1" />
<text x="104" y="712" fill="#5b6770" font-family="system-ui, -apple-system, BlinkMacSystemFont, &#x27;Segoe UI&#x27;, sans-serif" font-size="11px" text-anchor="middle">3 Aug</text>
<line x1="257.49" y1="690" x2="257.49" y2="694" stroke="#d8d9d6" stroke-width="1" />
<text x="257.49" y="712" fill="#5b6770" font-family="system-ui, -apple-system, BlinkMacSystemFont, &#x27;Segoe UI&#x27;, sans-serif" font-size="11px" text-anchor="middle">20 Aug</text>
<line x1="420" y1="690" x2="420" y2="694" stroke="#d8d9d6" stroke-width="1" />
<text x="420" y="712" fill="#5b6770" font-family="system-ui, -apple-system, BlinkMacSystemFont, &#x27;Segoe UI&#x27;, sans-serif" font-size="11px" text-anchor="middle">15 Sep</text>
<text x="262" y="738" fill="#5b6770" font-family="system-ui, -apple-system, BlinkMacSystemFont, &#x27;Segoe UI&#x27;, sans-serif" font-size="11px" text-anchor="middle">scored delivery date</text>
<text x="42" y="637.5" fill="#5b6770" font-family="system-ui, -apple-system, BlinkMacSystemFont, &#x27;Segoe UI&#x27;, sans-serif" font-size="11px" text-anchor="middle" transform="rotate(-90 42 637.5)">Brier score</text>
<path d="M 104 652.87 L 113.03 669.71 L 122.06 651.6 L 131.09 652.16 L 140.11 643.72 L 149.14 646.47 L 158.17 642.17 L 167.2 643.54 L 176.23 645.31 L 185.26 643.98 L 194.29 647.42 L 203.31 650.93 L 212.34 643.59 L 221.37 645.01 L 230.4 648.01 L 239.43 650.64 L 248.46 652.55 L 257.49 654.63 L 266.51 656.49 L 275.54 655.3 L 284.57 656.54 L 293.6 658.06 L 302.63 659.43 L 311.66 660.25 L 320.69 657.47 L 329.71 657.4 L 338.74 654.37 L 347.77 655.5 L 356.8 655.56 L 365.83 656.7 L 374.86 657.78 L 383.89 658.78 L 392.91 658.08 L 401.94 658.35 L 410.97 659.26 L 420 660.01" fill="none" stroke="#0b5563" stroke-width="2.4" stroke-linecap="round" stroke-linejoin="round" />
<circle cx="420" cy="660.01" r="3" fill="#0b5563" />
<path d="M 104 658.95 L 113.03 658.95 L 122.06 638.95 L 131.09 628.96 L 140.11 634.95 L 149.14 619.99 L 158.17 613.29 L 167.2 619 L 176.23 620.91 L 185.26 624.71 L 194.29 627.83 L 203.31 630.42 L 212.34 632.62 L 221.37 634.5 L 230.4 636.13 L 239.43 637.55 L 248.46 638.81 L 257.49 639.93 L 266.51 640.93 L 275.54 639.82 L 284.57 633.98 L 293.6 635.11 L 302.63 636.15 L 311.66 637.1 L 320.69 637.97 L 329.71 629.72 L 338.74 627.85 L 347.77 629.4 L 356.8 630.85 L 365.83 632.2 L 374.86 633.47 L 383.89 634.65 L 392.91 634.88 L 401.94 635.95 L 410.97 636.97 L 420 637.92" fill="none" stroke="#9a4f00" stroke-width="2.4" stroke-linecap="round" stroke-linejoin="round" />
<circle cx="420" cy="637.92" r="3" fill="#9a4f00" />
<text x="438" y="664.01" fill="#0b5563" font-family="system-ui, -apple-system, BlinkMacSystemFont, &#x27;Segoe UI&#x27;, sans-serif" font-size="12px" font-weight="600">Model · 0.0257</text>
<text x="438" y="641.92" fill="#9a4f00" font-family="system-ui, -apple-system, BlinkMacSystemFont, &#x27;Segoe UI&#x27;, sans-serif" font-size="12px" font-weight="600">Climatology · 0.0446</text>
<text x="639" y="513" fill="#1f2933" font-family="system-ui, -apple-system, BlinkMacSystemFont, &#x27;Segoe UI&#x27;, sans-serif" font-size="15px" font-weight="650">Panel C · Interval coverage</text>
<text x="639" y="534" fill="#5b6770" font-family="system-ui, -apple-system, BlinkMacSystemFont, &#x27;Segoe UI&#x27;, sans-serif" font-size="11px">Empirical coverage against nominal reference</text>
<text x="1109" y="513" fill="#5b6770" font-family="system-ui, -apple-system, BlinkMacSystemFont, &#x27;Segoe UI&#x27;, sans-serif" font-size="11px" text-anchor="end">864 evaluated hours</text>
<text x="639" y="549" fill="#1f2933" font-family="system-ui, -apple-system, BlinkMacSystemFont, &#x27;Segoe UI&#x27;, sans-serif" font-size="11px">Coverage alone is not utility: wider intervals can over-cover.</text>
<text x="639" y="563" fill="#5b6770" font-family="system-ui, -apple-system, BlinkMacSystemFont, &#x27;Segoe UI&#x27;, sans-serif" font-size="10px">Pinball loss and interval width remain part of Call C.</text>
<line x1="673" y1="690" x2="990" y2="690" stroke="#e8e8e4" stroke-width="0.8" />
<text x="661" y="694" fill="#5b6770" font-family="system-ui, -apple-system, BlinkMacSystemFont, &#x27;Segoe UI&#x27;, sans-serif" font-size="11px" text-anchor="end">0.00</text>
<line x1="673" y1="663.75" x2="990" y2="663.75" stroke="#e8e8e4" stroke-width="0.8" />
<text x="661" y="667.75" fill="#5b6770" font-family="system-ui, -apple-system, BlinkMacSystemFont, &#x27;Segoe UI&#x27;, sans-serif" font-size="11px" text-anchor="end">0.25</text>
<line x1="673" y1="637.5" x2="990" y2="637.5" stroke="#e8e8e4" stroke-width="0.8" />
<text x="661" y="641.5" fill="#5b6770" font-family="system-ui, -apple-system, BlinkMacSystemFont, &#x27;Segoe UI&#x27;, sans-serif" font-size="11px" text-anchor="end">0.50</text>
<line x1="673" y1="611.25" x2="990" y2="611.25" stroke="#e8e8e4" stroke-width="0.8" />
<text x="661" y="615.25" fill="#5b6770" font-family="system-ui, -apple-system, BlinkMacSystemFont, &#x27;Segoe UI&#x27;, sans-serif" font-size="11px" text-anchor="end">0.75</text>
<line x1="673" y1="585" x2="990" y2="585" stroke="#e8e8e4" stroke-width="0.8" />
<text x="661" y="589" fill="#5b6770" font-family="system-ui, -apple-system, BlinkMacSystemFont, &#x27;Segoe UI&#x27;, sans-serif" font-size="11px" text-anchor="end">1.00</text>
<line x1="673" y1="585" x2="673" y2="690" stroke="#d8d9d6" stroke-width="1" />
<line x1="673" y1="690" x2="990" y2="690" stroke="#d8d9d6" stroke-width="1" />
<line x1="673" y1="690" x2="673" y2="694" stroke="#d8d9d6" stroke-width="1" />
<text x="673" y="712" fill="#5b6770" font-family="system-ui, -apple-system, BlinkMacSystemFont, &#x27;Segoe UI&#x27;, sans-serif" font-size="11px" text-anchor="middle">3 Aug</text>
<line x1="826.97" y1="690" x2="826.97" y2="694" stroke="#d8d9d6" stroke-width="1" />
<text x="826.97" y="712" fill="#5b6770" font-family="system-ui, -apple-system, BlinkMacSystemFont, &#x27;Segoe UI&#x27;, sans-serif" font-size="11px" text-anchor="middle">20 Aug</text>
<line x1="990" y1="690" x2="990" y2="694" stroke="#d8d9d6" stroke-width="1" />
<text x="990" y="712" fill="#5b6770" font-family="system-ui, -apple-system, BlinkMacSystemFont, &#x27;Segoe UI&#x27;, sans-serif" font-size="11px" text-anchor="middle">15 Sep</text>
<text x="831.5" y="738" fill="#5b6770" font-family="system-ui, -apple-system, BlinkMacSystemFont, &#x27;Segoe UI&#x27;, sans-serif" font-size="11px" text-anchor="middle">scored delivery date</text>
<text x="611" y="637.5" fill="#5b6770" font-family="system-ui, -apple-system, BlinkMacSystemFont, &#x27;Segoe UI&#x27;, sans-serif" font-size="11px" text-anchor="middle" transform="rotate(-90 611 637.5)">coverage</text>
<line x1="673" y1="637.5" x2="990" y2="637.5" stroke="#8a9298" stroke-width="1" stroke-dasharray="4 4" />
<text x="681" y="632.5" fill="#8a9298" font-family="system-ui, -apple-system, BlinkMacSystemFont, &#x27;Segoe UI&#x27;, sans-serif" font-size="10px">50% nominal</text>
<line x1="673" y1="606" x2="990" y2="606" stroke="#8a9298" stroke-width="1" stroke-dasharray="4 4" />
<text x="681" y="601" fill="#8a9298" font-family="system-ui, -apple-system, BlinkMacSystemFont, &#x27;Segoe UI&#x27;, sans-serif" font-size="10px">80% nominal</text>
<path d="M 673 650.62 L 682.06 644.06 L 691.11 643.33 L 700.17 647.34 L 709.23 641.88 L 718.29 646.25 L 727.34 639.38 L 736.4 639.14 L 745.46 640.9 L 754.51 640.56 L 763.57 640.68 L 772.63 637.5 L 781.69 634.81 L 790.74 635.94 L 799.8 637.21 L 808.86 637.23 L 817.91 639.82 L 826.97 638.47 L 836.03 639.11 L 845.09 640.34 L 854.14 639.79 L 863.2 639.49 L 872.26 639.02 L 881.31 641.15 L 890.37 641.35 L 899.43 640.87 L 908.49 642.04 L 917.54 643.44 L 926.6 644.29 L 935.66 643.62 L 944.71 642.3 L 953.77 643.79 L 962.83 644.79 L 971.89 646.12 L 980.94 645.62 L 990 645.89" fill="none" stroke="#0b5563" stroke-width="2.4" stroke-linecap="round" stroke-linejoin="round" />
<circle cx="990" cy="645.89" r="3" fill="#0b5563" />
<path d="M 673 611.25 L 682.06 613.44 L 691.11 609.79 L 700.17 605.78 L 709.23 601.62 L 718.29 601.77 L 727.34 599.38 L 736.4 597.58 L 745.46 598.61 L 754.51 598.12 L 763.57 598.92 L 772.63 597.76 L 781.69 596.78 L 790.74 599.06 L 799.8 601.04 L 808.86 601.41 L 817.91 605.33 L 826.97 604.2 L 836.03 605.03 L 845.09 604.91 L 854.14 605.62 L 863.2 605.28 L 872.26 604.59 L 881.31 605.42 L 890.37 605.3 L 899.43 604.86 L 908.49 606.55 L 917.54 608.28 L 926.6 607.78 L 935.66 607.31 L 944.71 607.02 L 953.77 608.93 L 962.83 610.59 L 971.89 612.92 L 980.94 612.75 L 990 612.34" fill="none" stroke="#2b8790" stroke-width="2.4" stroke-linecap="round" stroke-linejoin="round" />
<circle cx="990" cy="612.34" r="3" fill="#2b8790" />
<text x="1008" y="649.89" fill="#0b5563" font-family="system-ui, -apple-system, BlinkMacSystemFont, &#x27;Segoe UI&#x27;, sans-serif" font-size="12px" font-weight="600">50% empirical · 42.0%</text>
<text x="1008" y="616.34" fill="#2b8790" font-family="system-ui, -apple-system, BlinkMacSystemFont, &#x27;Segoe UI&#x27;, sans-serif" font-size="12px" font-weight="600">80% empirical · 74.0%</text>
<line x1="48" y1="810" x2="1152" y2="810" stroke="#d8d9d6" stroke-width="1" />
<text x="48" y="833" fill="#5b6770" font-family="system-ui, -apple-system, BlinkMacSystemFont, &#x27;Segoe UI&#x27;, sans-serif" font-size="10px">Source: results/ledger.jsonl · SCORED rows only · cumulative values use scored-hour weights · missed and pending rows are excluded.</text>
<text x="48" y="850" fill="#5b6770" font-family="system-ui, -apple-system, BlinkMacSystemFont, &#x27;Segoe UI&#x27;, sans-serif" font-size="10px">Sample still accumulating; no final claim is made before the preregistered gates are reached.</text>
</svg>
