<svg xmlns="http://www.w3.org/2000/svg" viewBox="0 0 1200 860" role="img" aria-labelledby="svg-title svg-desc">
<title id="svg-title">Prospective DE-LU forecast track record</title>
<desc id="svg-desc">Source-derived prospective record from 3 August 2026 to 29 September 2026, with 50 scored delivery days and 1200 scored hours. The sample is still accumulating.</desc>
<rect x="0" y="0" width="1200" height="860" fill="#fffdf9" stroke="#fffdf9" stroke-width="0" />
<text x="48" y="44" fill="#1f2933" font-family="system-ui, -apple-system, BlinkMacSystemFont, &#x27;Segoe UI&#x27;, sans-serif" font-size="25px" font-weight="650">Prospective DE-LU forecast track record</text>
<text x="48" y="70" fill="#5b6770" font-family="system-ui, -apple-system, BlinkMacSystemFont, &#x27;Segoe UI&#x27;, sans-serif" font-size="13px">Sealed before auction close · scored after settlement</text>
<text x="48" y="96" fill="#1f2933" font-family="system-ui, -apple-system, BlinkMacSystemFont, &#x27;Segoe UI&#x27;, sans-serif" font-size="12px" font-weight="550">Early prospective record · 50 scored days · 1200 hours · through 29 September 2026 · 8 missed days</text>
<rect x="48" y="126" width="1104" height="326" fill="#fffdf9" stroke="#d8d9d6" stroke-width="1" />
<rect x="48" y="482" width="535" height="298" fill="#fffdf9" stroke="#d8d9d6" stroke-width="1" />
<rect x="617" y="482" width="535" height="298" fill="#fffdf9" stroke="#d8d9d6" stroke-width="1" />
<text x="70" y="157" fill="#1f2933" font-family="system-ui, -apple-system, BlinkMacSystemFont, &#x27;Segoe UI&#x27;, sans-serif" font-size="15px" font-weight="650">Panel A · Price forecast error</text>
<text x="70" y="178" fill="#5b6770" font-family="system-ui, -apple-system, BlinkMacSystemFont, &#x27;Segoe UI&#x27;, sans-serif" font-size="11px">Cumulative hourly MAE · lower is better</text>
<text x="540" y="157" fill="#5b6770" font-family="system-ui, -apple-system, BlinkMacSystemFont, &#x27;Segoe UI&#x27;, sans-serif" font-size="11px" text-anchor="end">50 scored days · 1200 scored hours</text>
<text x="70" y="196" fill="#5b6770" font-family="system-ui, -apple-system, BlinkMacSystemFont, &#x27;Segoe UI&#x27;, sans-serif" font-size="11px">B1: same hour, seven days prior (D-7 persistence) · B2: same hour, one day prior (D-1 persistence)</text>
<line x1="112" y1="394" x2="850" y2="394" stroke="#e8e8e4" stroke-width="0.8" />
<text x="100" y="398" fill="#5b6770" font-family="system-ui, -apple-system, BlinkMacSystemFont, &#x27;Segoe UI&#x27;, sans-serif" font-size="11px" text-anchor="end">0</text>
<line x1="112" y1="350" x2="850" y2="350" stroke="#e8e8e4" stroke-width="0.8" />
<text x="100" y="354" fill="#5b6770" font-family="system-ui, -apple-system, BlinkMacSystemFont, &#x27;Segoe UI&#x27;, sans-serif" font-size="11px" text-anchor="end">15</text>
<line x1="112" y1="306" x2="850" y2="306" stroke="#e8e8e4" stroke-width="0.8" />
<text x="100" y="310" fill="#5b6770" font-family="system-ui, -apple-system, BlinkMacSystemFont, &#x27;Segoe UI&#x27;, sans-serif" font-size="11px" text-anchor="end">30</text>
<line x1="112" y1="262" x2="850" y2="262" stroke="#e8e8e4" stroke-width="0.8" />
<text x="100" y="266" fill="#5b6770" font-family="system-ui, -apple-system, BlinkMacSystemFont, &#x27;Segoe UI&#x27;, sans-serif" font-size="11px" text-anchor="end">45</text>
<line x1="112" y1="218" x2="850" y2="218" stroke="#e8e8e4" stroke-width="0.8" />
<text x="100" y="222" fill="#5b6770" font-family="system-ui, -apple-system, BlinkMacSystemFont, &#x27;Segoe UI&#x27;, sans-serif" font-size="11px" text-anchor="end">60</text>
<line x1="112" y1="218" x2="112" y2="394" stroke="#d8d9d6" stroke-width="1" />
<line x1="112" y1="394" x2="850" y2="394" stroke="#d8d9d6" stroke-width="1" />
<line x1="112" y1="394" x2="112" y2="398" stroke="#d8d9d6" stroke-width="1" />
<text x="112" y="416" fill="#5b6770" font-family="system-ui, -apple-system, BlinkMacSystemFont, &#x27;Segoe UI&#x27;, sans-serif" font-size="11px" text-anchor="middle">3 Aug</text>
<line x1="473.47" y1="394" x2="473.47" y2="398" stroke="#d8d9d6" stroke-width="1" />
<text x="473.47" y="416" fill="#5b6770" font-family="system-ui, -apple-system, BlinkMacSystemFont, &#x27;Segoe UI&#x27;, sans-serif" font-size="11px" text-anchor="middle">27 Aug</text>
<line x1="850" y1="394" x2="850" y2="398" stroke="#d8d9d6" stroke-width="1" />
<text x="850" y="416" fill="#5b6770" font-family="system-ui, -apple-system, BlinkMacSystemFont, &#x27;Segoe UI&#x27;, sans-serif" font-size="11px" text-anchor="middle">29 Sep</text>
<text x="481" y="442" fill="#5b6770" font-family="system-ui, -apple-system, BlinkMacSystemFont, &#x27;Segoe UI&#x27;, sans-serif" font-size="11px" text-anchor="middle">scored delivery date</text>
<text x="50" y="306" fill="#5b6770" font-family="system-ui, -apple-system, BlinkMacSystemFont, &#x27;Segoe UI&#x27;, sans-serif" font-size="11px" text-anchor="middle" transform="rotate(-90 50 306)">cumulative MAE (EUR/MWh)</text>
<path d="M 112 323.48 L 127.06 334.47 L 142.12 332.21 L 157.18 340.1 L 172.24 340.03 L 187.31 337.17 L 202.37 340.19 L 217.43 342.52 L 232.49 342.04 L 247.55 340.63 L 262.61 337.87 L 277.67 339.36 L 292.73 342.21 L 307.8 341.39 L 322.86 339.18 L 337.92 339.17 L 352.98 336.05 L 368.04 337.55 L 383.1 336.46 L 398.16 337.24 L 413.22 336.63 L 428.29 335.33 L 443.35 335.35 L 458.41 334.33 L 473.47 334.2 L 488.53 335.64 L 503.59 334.2 L 518.65 332.2 L 533.71 331.37 L 548.78 331.67 L 563.84 330.82 L 578.9 326.74 L 593.96 323.86 L 609.02 321.42 L 624.08 319.57 L 639.14 318.43 L 654.2 318.16 L 669.27 318.28 L 684.33 316.91 L 699.39 316.07 L 714.45 314.53 L 729.51 312.86 L 744.57 311.08 L 759.63 311.23 L 774.69 309.94 L 789.76 310.2 L 804.82 309.47 L 819.88 308.8 L 834.94 307.46 L 850 307.57" fill="none" stroke="#0b5563" stroke-width="2.4" stroke-linecap="round" stroke-linejoin="round" />
<circle cx="850" cy="307.57" r="3" fill="#0b5563" />
<path d="M 112 244.18 L 127.06 266.96 L 142.12 291.64 L 157.18 298.47 L 172.24 301.9 L 187.31 307 L 202.37 314.41 L 217.43 319.24 L 232.49 314.7 L 247.55 314.22 L 262.61 308.36 L 277.67 310.78 L 292.73 312.44 L 307.8 309.13 L 322.86 303.29 L 337.92 299.14 L 352.98 296.98 L 368.04 296.39 L 383.1 295.09 L 398.16 297.28 L 413.22 294.55 L 428.29 294.2 L 443.35 295.49 L 458.41 297.88 L 473.47 298.9 L 488.53 297.57 L 503.59 297.67 L 518.65 296.17 L 533.71 297.91 L 548.78 299.1 L 563.84 296.4 L 578.9 289.71 L 593.96 284.35 L 609.02 282.53 L 624.08 277.28 L 639.14 277.77 L 654.2 277.8 L 669.27 276.8 L 684.33 274.18 L 699.39 270.19 L 714.45 262.88 L 729.51 254.83 L 744.57 254.4 L 759.63 255.96 L 774.69 256.89 L 789.76 256.3 L 804.82 252.52 L 819.88 250.01 L 834.94 247 L 850 246.39" fill="none" stroke="#9a4f00" stroke-width="2.4" stroke-linecap="round" stroke-linejoin="round" />
<circle cx="850" cy="246.39" r="3" fill="#9a4f00" />
<path d="M 112 293.36 L 127.06 311.86 L 142.12 298.34 L 157.18 313.37 L 172.24 313.29 L 187.31 312.7 L 202.37 320.24 L 217.43 319.54 L 232.49 323.37 L 247.55 322.22 L 262.61 325.74 L 277.67 327.83 L 292.73 327.27 L 307.8 328.24 L 322.86 324.69 L 337.92 326.62 L 352.98 329.95 L 368.04 330.5 L 383.1 330.47 L 398.16 323.54 L 413.22 322.77 L 428.29 318.2 L 443.35 320.01 L 458.41 321.35 L 473.47 320.95 L 488.53 318.38 L 503.59 314.08 L 518.65 311.84 L 533.71 312.8 L 548.78 312.68 L 563.84 310.6 L 578.9 310.31 L 593.96 306.89 L 609.02 305.61 L 624.08 300.55 L 639.14 296.76 L 654.2 297.53 L 669.27 296.98 L 684.33 297.7 L 699.39 294.39 L 714.45 295.32 L 729.51 292.45 L 744.57 285.97 L 759.63 284.6 L 774.69 283.59 L 789.76 283.48 L 804.82 283.99 L 819.88 283.88 L 834.94 280.62 L 850 280.72" fill="none" stroke="#5e477e" stroke-width="2.4" stroke-linecap="round" stroke-linejoin="round" />
<circle cx="850" cy="280.72" r="3" fill="#5e477e" />
<text x="870" y="311.57" fill="#0b5563" font-family="system-ui, -apple-system, BlinkMacSystemFont, &#x27;Segoe UI&#x27;, sans-serif" font-size="12px" font-weight="600">Model (v1) · 29.47</text>
<text x="870" y="250.39" fill="#9a4f00" font-family="system-ui, -apple-system, BlinkMacSystemFont, &#x27;Segoe UI&#x27;, sans-serif" font-size="12px" font-weight="600">B1 · same-hour 7-day · 50.32</text>
<text x="870" y="284.72" fill="#5e477e" font-family="system-ui, -apple-system, BlinkMacSystemFont, &#x27;Segoe UI&#x27;, sans-serif" font-size="12px" font-weight="600">B2 · same-hour previous-day · 38.62</text>
<text x="70" y="513" fill="#1f2933" font-family="system-ui, -apple-system, BlinkMacSystemFont, &#x27;Segoe UI&#x27;, sans-serif" font-size="15px" font-weight="650">Panel B · Negative-price probability</text>
<text x="70" y="534" fill="#5b6770" font-family="system-ui, -apple-system, BlinkMacSystemFont, &#x27;Segoe UI&#x27;, sans-serif" font-size="11px">Cumulative Brier score · lower is better</text>
<text x="540" y="534" fill="#5b6770" font-family="system-ui, -apple-system, BlinkMacSystemFont, &#x27;Segoe UI&#x27;, sans-serif" font-size="11px" text-anchor="end">1200 evaluated hours · 63 negative · 114 below EUR 10</text>
<text x="70" y="549" fill="#1f2933" font-family="system-ui, -apple-system, BlinkMacSystemFont, &#x27;Segoe UI&#x27;, sans-serif" font-size="11px">Support reached: 63 negative-price hours; window open through 31 October 2026.</text>
<text x="70" y="563" fill="#5b6770" font-family="system-ui, -apple-system, BlinkMacSystemFont, &#x27;Segoe UI&#x27;, sans-serif" font-size="10px">Descriptive early sample; no reliable forecasting claim is made before the gates.</text>
<line x1="104" y1="690" x2="420" y2="690" stroke="#e8e8e4" stroke-width="0.8" />
<text x="92" y="694" fill="#5b6770" font-family="system-ui, -apple-system, BlinkMacSystemFont, &#x27;Segoe UI&#x27;, sans-serif" font-size="11px" text-anchor="end">0.000</text>
<line x1="104" y1="663.75" x2="420" y2="663.75" stroke="#e8e8e4" stroke-width="0.8" />
<text x="92" y="667.75" fill="#5b6770" font-family="system-ui, -apple-system, BlinkMacSystemFont, &#x27;Segoe UI&#x27;, sans-serif" font-size="11px" text-anchor="end">0.022</text>
<line x1="104" y1="637.5" x2="420" y2="637.5" stroke="#e8e8e4" stroke-width="0.8" />
<text x="92" y="641.5" fill="#5b6770" font-family="system-ui, -apple-system, BlinkMacSystemFont, &#x27;Segoe UI&#x27;, sans-serif" font-size="11px" text-anchor="end">0.045</text>
<line x1="104" y1="611.25" x2="420" y2="611.25" stroke="#e8e8e4" stroke-width="0.8" />
<text x="92" y="615.25" fill="#5b6770" font-family="system-ui, -apple-system, BlinkMacSystemFont, &#x27;Segoe UI&#x27;, sans-serif" font-size="11px" text-anchor="end">0.068</text>
<line x1="104" y1="585" x2="420" y2="585" stroke="#e8e8e4" stroke-width="0.8" />
<text x="92" y="589" fill="#5b6770" font-family="system-ui, -apple-system, BlinkMacSystemFont, &#x27;Segoe UI&#x27;, sans-serif" font-size="11px" text-anchor="end">0.090</text>
<line x1="104" y1="585" x2="104" y2="690" stroke="#d8d9d6" stroke-width="1" />
<line x1="104" y1="690" x2="420" y2="690" stroke="#d8d9d6" stroke-width="1" />
<line x1="104" y1="690" x2="104" y2="694" stroke="#d8d9d6" stroke-width="1" />
<text x="104" y="712" fill="#5b6770" font-family="system-ui, -apple-system, BlinkMacSystemFont, &#x27;Segoe UI&#x27;, sans-serif" font-size="11px" text-anchor="middle">3 Aug</text>
<line x1="258.78" y1="690" x2="258.78" y2="694" stroke="#d8d9d6" stroke-width="1" />
<text x="258.78" y="712" fill="#5b6770" font-family="system-ui, -apple-system, BlinkMacSystemFont, &#x27;Segoe UI&#x27;, sans-serif" font-size="11px" text-anchor="middle">27 Aug</text>
<line x1="420" y1="690" x2="420" y2="694" stroke="#d8d9d6" stroke-width="1" />
<text x="420" y="712" fill="#5b6770" font-family="system-ui, -apple-system, BlinkMacSystemFont, &#x27;Segoe UI&#x27;, sans-serif" font-size="11px" text-anchor="middle">29 Sep</text>
<text x="262" y="738" fill="#5b6770" font-family="system-ui, -apple-system, BlinkMacSystemFont, &#x27;Segoe UI&#x27;, sans-serif" font-size="11px" text-anchor="middle">scored delivery date</text>
<text x="42" y="637.5" fill="#5b6770" font-family="system-ui, -apple-system, BlinkMacSystemFont, &#x27;Segoe UI&#x27;, sans-serif" font-size="11px" text-anchor="middle" transform="rotate(-90 42 637.5)">Brier score</text>
<path d="M 104 652.87 L 110.45 669.71 L 116.9 651.6 L 123.35 652.16 L 129.8 643.72 L 136.24 646.47 L 142.69 642.17 L 149.14 643.54 L 155.59 645.31 L 162.04 643.98 L 168.49 647.42 L 174.94 650.93 L 181.39 643.59 L 187.84 645.01 L 194.29 648.01 L 200.73 650.64 L 207.18 652.55 L 213.63 654.63 L 220.08 656.49 L 226.53 655.3 L 232.98 656.54 L 239.43 658.06 L 245.88 659.43 L 252.33 660.25 L 258.78 657.47 L 265.22 657.4 L 271.67 654.37 L 278.12 655.5 L 284.57 655.56 L 291.02 656.7 L 297.47 657.78 L 303.92 658.78 L 310.37 658.08 L 316.82 658.35 L 323.27 659.26 L 329.71 660.01 L 336.16 660.83 L 342.61 661.26 L 349.06 661.87 L 355.51 662.39 L 361.96 662.25 L 368.41 658.16 L 374.86 658.9 L 381.31 659.61 L 387.76 658.14 L 394.2 658.83 L 400.65 659.21 L 407.1 658.79 L 413.55 659.43 L 420 660.04" fill="none" stroke="#0b5563" stroke-width="2.4" stroke-linecap="round" stroke-linejoin="round" />
<circle cx="420" cy="660.04" r="3" fill="#0b5563" />
<path d="M 104 658.95 L 110.45 658.95 L 116.9 638.95 L 123.35 628.96 L 129.8 634.95 L 136.24 619.99 L 142.69 613.29 L 149.14 619 L 155.59 620.91 L 162.04 624.71 L 168.49 627.83 L 174.94 630.42 L 181.39 632.62 L 187.84 634.5 L 194.29 636.13 L 200.73 637.55 L 207.18 638.81 L 213.63 639.93 L 220.08 640.93 L 226.53 639.82 L 232.98 633.98 L 239.43 635.11 L 245.88 636.15 L 252.33 637.1 L 258.78 637.97 L 265.22 629.72 L 271.67 627.85 L 278.12 629.4 L 284.57 630.85 L 291.02 632.2 L 297.47 633.47 L 303.92 634.65 L 310.37 634.88 L 316.82 635.95 L 323.27 636.97 L 329.71 637.92 L 336.16 638.83 L 342.61 639.68 L 349.06 640.5 L 355.51 637.3 L 361.96 633.23 L 368.41 634.14 L 374.86 635.01 L 381.31 635.83 L 387.76 636.62 L 394.2 637.38 L 400.65 638.1 L 407.1 636.33 L 413.55 637.05 L 420 637.73" fill="none" stroke="#9a4f00" stroke-width="2.4" stroke-linecap="round" stroke-linejoin="round" />
<circle cx="420" cy="637.73" r="3" fill="#9a4f00" />
<text x="438" y="664.04" fill="#0b5563" font-family="system-ui, -apple-system, BlinkMacSystemFont, &#x27;Segoe UI&#x27;, sans-serif" font-size="12px" font-weight="600">Model · 0.0257</text>
<text x="438" y="641.73" fill="#9a4f00" font-family="system-ui, -apple-system, BlinkMacSystemFont, &#x27;Segoe UI&#x27;, sans-serif" font-size="12px" font-weight="600">Climatology · 0.0448</text>
<text x="639" y="513" fill="#1f2933" font-family="system-ui, -apple-system, BlinkMacSystemFont, &#x27;Segoe UI&#x27;, sans-serif" font-size="15px" font-weight="650">Panel C · Interval coverage</text>
<text x="639" y="534" fill="#5b6770" font-family="system-ui, -apple-system, BlinkMacSystemFont, &#x27;Segoe UI&#x27;, sans-serif" font-size="11px">Empirical coverage against nominal reference</text>
<text x="1109" y="513" fill="#5b6770" font-family="system-ui, -apple-system, BlinkMacSystemFont, &#x27;Segoe UI&#x27;, sans-serif" font-size="11px" text-anchor="end">1200 evaluated hours</text>
<text x="639" y="549" fill="#1f2933" font-family="system-ui, -apple-system, BlinkMacSystemFont, &#x27;Segoe UI&#x27;, sans-serif" font-size="11px">Coverage alone is not utility: wider intervals can over-cover.</text>
<text x="639" y="563" fill="#5b6770" font-family="system-ui, -apple-system, BlinkMacSystemFont, &#x27;Segoe UI&#x27;, sans-serif" font-size="10px">Pinball loss and interval width remain part of Call C.</text>
<line x1="673" y1="690" x2="990" y2="690" stroke="#e8e8e4" stroke-width="0.8" />
<text x="661" y="694" fill="#5b6770" font-family="system-ui, -apple-system, BlinkMacSystemFont, &#x27;Segoe UI&#x27;, sans-serif" font-size="11px" text-anchor="end">0.00</text>
<line x1="673" y1="663.75" x2="990" y2="663.75" stroke="#e8e8e4" stroke-width="0.8" />
<text x="661" y="667.75" fill="#5b6770" font-family="system-ui, -apple-system, BlinkMacSystemFont, &#x27;Segoe UI&#x27;, sans-serif" font-size="11px" text-anchor="end">0.25</text>
<line x1="673" y1="637.5" x2="990" y2="637.5" stroke="#e8e8e4" stroke-width="0.8" />
<text x="661" y="641.5" fill="#5b6770" font-family="system-ui, -apple-system, BlinkMacSystemFont, &#x27;Segoe UI&#x27;, sans-serif" font-size="11px" text-anchor="end">0.50</text>
<line x1="673" y1="611.25" x2="990" y2="611.25" stroke="#e8e8e4" stroke-width="0.8" />
<text x="661" y="615.25" fill="#5b6770" font-family="system-ui, -apple-system, BlinkMacSystemFont, &#x27;Segoe UI&#x27;, sans-serif" font-size="11px" text-anchor="end">0.75</text>
<line x1="673" y1="585" x2="990" y2="585" stroke="#e8e8e4" stroke-width="0.8" />
<text x="661" y="589" fill="#5b6770" font-family="system-ui, -apple-system, BlinkMacSystemFont, &#x27;Segoe UI&#x27;, sans-serif" font-size="11px" text-anchor="end">1.00</text>
<line x1="673" y1="585" x2="673" y2="690" stroke="#d8d9d6" stroke-width="1" />
<line x1="673" y1="690" x2="990" y2="690" stroke="#d8d9d6" stroke-width="1" />
<line x1="673" y1="690" x2="673" y2="694" stroke="#d8d9d6" stroke-width="1" />
<text x="673" y="712" fill="#5b6770" font-family="system-ui, -apple-system, BlinkMacSystemFont, &#x27;Segoe UI&#x27;, sans-serif" font-size="11px" text-anchor="middle">3 Aug</text>
<line x1="828.27" y1="690" x2="828.27" y2="694" stroke="#d8d9d6" stroke-width="1" />
<text x="828.27" y="712" fill="#5b6770" font-family="system-ui, -apple-system, BlinkMacSystemFont, &#x27;Segoe UI&#x27;, sans-serif" font-size="11px" text-anchor="middle">27 Aug</text>
<line x1="990" y1="690" x2="990" y2="694" stroke="#d8d9d6" stroke-width="1" />
<text x="990" y="712" fill="#5b6770" font-family="system-ui, -apple-system, BlinkMacSystemFont, &#x27;Segoe UI&#x27;, sans-serif" font-size="11px" text-anchor="middle">29 Sep</text>
<text x="831.5" y="738" fill="#5b6770" font-family="system-ui, -apple-system, BlinkMacSystemFont, &#x27;Segoe UI&#x27;, sans-serif" font-size="11px" text-anchor="middle">scored delivery date</text>
<text x="611" y="637.5" fill="#5b6770" font-family="system-ui, -apple-system, BlinkMacSystemFont, &#x27;Segoe UI&#x27;, sans-serif" font-size="11px" text-anchor="middle" transform="rotate(-90 611 637.5)">coverage</text>
<line x1="673" y1="637.5" x2="990" y2="637.5" stroke="#8a9298" stroke-width="1" stroke-dasharray="4 4" />
<text x="681" y="632.5" fill="#8a9298" font-family="system-ui, -apple-system, BlinkMacSystemFont, &#x27;Segoe UI&#x27;, sans-serif" font-size="10px">50% nominal</text>
<line x1="673" y1="606" x2="990" y2="606" stroke="#8a9298" stroke-width="1" stroke-dasharray="4 4" />
<text x="681" y="601" fill="#8a9298" font-family="system-ui, -apple-system, BlinkMacSystemFont, &#x27;Segoe UI&#x27;, sans-serif" font-size="10px">80% nominal</text>
<path d="M 673 650.62 L 679.47 644.06 L 685.94 643.33 L 692.41 647.34 L 698.88 641.88 L 705.35 646.25 L 711.82 639.38 L 718.29 639.14 L 724.76 640.9 L 731.22 640.56 L 737.69 640.68 L 744.16 637.5 L 750.63 634.81 L 757.1 635.94 L 763.57 637.21 L 770.04 637.23 L 776.51 639.82 L 782.98 638.47 L 789.45 639.11 L 795.92 640.34 L 802.39 639.79 L 808.86 639.49 L 815.33 639.02 L 821.8 641.15 L 828.27 641.35 L 834.73 640.87 L 841.2 642.04 L 847.67 643.44 L 854.14 644.29 L 860.61 643.62 L 867.08 642.3 L 873.55 643.79 L 880.02 644.79 L 886.49 646.12 L 892.96 645.62 L 899.43 645.89 L 905.9 646.13 L 912.37 646.94 L 918.84 647.26 L 925.31 647.45 L 931.78 647.85 L 938.24 648.65 L 944.71 648.69 L 951.18 647.74 L 957.65 647.9 L 964.12 647.58 L 970.59 648.11 L 977.06 648.62 L 983.53 649.2 L 990 648.61" fill="none" stroke="#0b5563" stroke-width="2.4" stroke-linecap="round" stroke-linejoin="round" />
<circle cx="990" cy="648.61" r="3" fill="#0b5563" />
<path d="M 673 611.25 L 679.47 613.44 L 685.94 609.79 L 692.41 605.78 L 698.88 601.62 L 705.35 601.77 L 711.82 599.38 L 718.29 597.58 L 724.76 598.61 L 731.22 598.12 L 737.69 598.92 L 744.16 597.76 L 750.63 596.78 L 757.1 599.06 L 763.57 601.04 L 770.04 601.41 L 776.51 605.33 L 782.98 604.2 L 789.45 605.03 L 795.92 604.91 L 802.39 605.62 L 808.86 605.28 L 815.33 604.59 L 821.8 605.42 L 828.27 605.3 L 834.73 604.86 L 841.2 606.55 L 847.67 608.28 L 854.14 607.78 L 860.61 607.31 L 867.08 607.02 L 873.55 608.93 L 880.02 610.59 L 886.49 612.92 L 892.96 612.75 L 899.43 612.34 L 905.9 612.55 L 912.37 613.78 L 918.84 614.73 L 925.31 615.3 L 931.78 616.48 L 938.24 617.71 L 944.71 617.66 L 951.18 616.92 L 957.65 617.28 L 964.12 616.86 L 970.59 617.49 L 977.06 618.18 L 983.53 618.39 L 990 617.73" fill="none" stroke="#2b8790" stroke-width="2.4" stroke-linecap="round" stroke-linejoin="round" />
<circle cx="990" cy="617.73" r="3" fill="#2b8790" />
<text x="1008" y="652.61" fill="#0b5563" font-family="system-ui, -apple-system, BlinkMacSystemFont, &#x27;Segoe UI&#x27;, sans-serif" font-size="12px" font-weight="600">50% empirical · 39.4%</text>
<text x="1008" y="621.73" fill="#2b8790" font-family="system-ui, -apple-system, BlinkMacSystemFont, &#x27;Segoe UI&#x27;, sans-serif" font-size="12px" font-weight="600">80% empirical · 68.8%</text>
<line x1="48" y1="810" x2="1152" y2="810" stroke="#d8d9d6" stroke-width="1" />
<text x="48" y="833" fill="#5b6770" font-family="system-ui, -apple-system, BlinkMacSystemFont, &#x27;Segoe UI&#x27;, sans-serif" font-size="10px">Source: results/ledger.jsonl · SCORED rows only · cumulative values use scored-hour weights · missed and pending rows are excluded.</text>
<text x="48" y="850" fill="#5b6770" font-family="system-ui, -apple-system, BlinkMacSystemFont, &#x27;Segoe UI&#x27;, sans-serif" font-size="10px">Sample still accumulating; no final claim is made before the preregistered gates are reached.</text>
</svg>
