<svg xmlns="http://www.w3.org/2000/svg" viewBox="0 0 1200 860" role="img" aria-labelledby="svg-title svg-desc">
<title id="svg-title">Prospective DE-LU forecast track record</title>
<desc id="svg-desc">Source-derived prospective record from 3 August 2026 to 23 September 2026, with 44 scored delivery days and 1056 scored hours. The sample is still accumulating.</desc>
<rect x="0" y="0" width="1200" height="860" fill="#fffdf9" stroke="#fffdf9" stroke-width="0" />
<text x="48" y="44" fill="#1f2933" font-family="system-ui, -apple-system, BlinkMacSystemFont, &#x27;Segoe UI&#x27;, sans-serif" font-size="25px" font-weight="650">Prospective DE-LU forecast track record</text>
<text x="48" y="70" fill="#5b6770" font-family="system-ui, -apple-system, BlinkMacSystemFont, &#x27;Segoe UI&#x27;, sans-serif" font-size="13px">Sealed before auction close · scored after settlement</text>
<text x="48" y="96" fill="#1f2933" font-family="system-ui, -apple-system, BlinkMacSystemFont, &#x27;Segoe UI&#x27;, sans-serif" font-size="12px" font-weight="550">Early prospective record · 44 scored days · 1056 hours · through 23 September 2026 · 8 missed days</text>
<rect x="48" y="126" width="1104" height="326" fill="#fffdf9" stroke="#d8d9d6" stroke-width="1" />
<rect x="48" y="482" width="535" height="298" fill="#fffdf9" stroke="#d8d9d6" stroke-width="1" />
<rect x="617" y="482" width="535" height="298" fill="#fffdf9" stroke="#d8d9d6" stroke-width="1" />
<text x="70" y="157" fill="#1f2933" font-family="system-ui, -apple-system, BlinkMacSystemFont, &#x27;Segoe UI&#x27;, sans-serif" font-size="15px" font-weight="650">Panel A · Price forecast error</text>
<text x="70" y="178" fill="#5b6770" font-family="system-ui, -apple-system, BlinkMacSystemFont, &#x27;Segoe UI&#x27;, sans-serif" font-size="11px">Cumulative hourly MAE · lower is better</text>
<text x="540" y="157" fill="#5b6770" font-family="system-ui, -apple-system, BlinkMacSystemFont, &#x27;Segoe UI&#x27;, sans-serif" font-size="11px" text-anchor="end">44 scored days · 1056 scored hours</text>
<text x="70" y="196" fill="#5b6770" font-family="system-ui, -apple-system, BlinkMacSystemFont, &#x27;Segoe UI&#x27;, sans-serif" font-size="11px">B1: same hour, seven days prior (D-7 persistence) · B2: same hour, one day prior (D-1 persistence)</text>
<line x1="112" y1="394" x2="850" y2="394" stroke="#e8e8e4" stroke-width="0.8" />
<text x="100" y="398" fill="#5b6770" font-family="system-ui, -apple-system, BlinkMacSystemFont, &#x27;Segoe UI&#x27;, sans-serif" font-size="11px" text-anchor="end">0</text>
<line x1="112" y1="350" x2="850" y2="350" stroke="#e8e8e4" stroke-width="0.8" />
<text x="100" y="354" fill="#5b6770" font-family="system-ui, -apple-system, BlinkMacSystemFont, &#x27;Segoe UI&#x27;, sans-serif" font-size="11px" text-anchor="end">15</text>
<line x1="112" y1="306" x2="850" y2="306" stroke="#e8e8e4" stroke-width="0.8" />
<text x="100" y="310" fill="#5b6770" font-family="system-ui, -apple-system, BlinkMacSystemFont, &#x27;Segoe UI&#x27;, sans-serif" font-size="11px" text-anchor="end">30</text>
<line x1="112" y1="262" x2="850" y2="262" stroke="#e8e8e4" stroke-width="0.8" />
<text x="100" y="266" fill="#5b6770" font-family="system-ui, -apple-system, BlinkMacSystemFont, &#x27;Segoe UI&#x27;, sans-serif" font-size="11px" text-anchor="end">45</text>
<line x1="112" y1="218" x2="850" y2="218" stroke="#e8e8e4" stroke-width="0.8" />
<text x="100" y="222" fill="#5b6770" font-family="system-ui, -apple-system, BlinkMacSystemFont, &#x27;Segoe UI&#x27;, sans-serif" font-size="11px" text-anchor="end">60</text>
<line x1="112" y1="218" x2="112" y2="394" stroke="#d8d9d6" stroke-width="1" />
<line x1="112" y1="394" x2="850" y2="394" stroke="#d8d9d6" stroke-width="1" />
<line x1="112" y1="394" x2="112" y2="398" stroke="#d8d9d6" stroke-width="1" />
<text x="112" y="416" fill="#5b6770" font-family="system-ui, -apple-system, BlinkMacSystemFont, &#x27;Segoe UI&#x27;, sans-serif" font-size="11px" text-anchor="middle">3 Aug</text>
<line x1="472.42" y1="394" x2="472.42" y2="398" stroke="#d8d9d6" stroke-width="1" />
<text x="472.42" y="416" fill="#5b6770" font-family="system-ui, -apple-system, BlinkMacSystemFont, &#x27;Segoe UI&#x27;, sans-serif" font-size="11px" text-anchor="middle">24 Aug</text>
<line x1="850" y1="394" x2="850" y2="398" stroke="#d8d9d6" stroke-width="1" />
<text x="850" y="416" fill="#5b6770" font-family="system-ui, -apple-system, BlinkMacSystemFont, &#x27;Segoe UI&#x27;, sans-serif" font-size="11px" text-anchor="middle">23 Sep</text>
<text x="481" y="442" fill="#5b6770" font-family="system-ui, -apple-system, BlinkMacSystemFont, &#x27;Segoe UI&#x27;, sans-serif" font-size="11px" text-anchor="middle">scored delivery date</text>
<text x="50" y="306" fill="#5b6770" font-family="system-ui, -apple-system, BlinkMacSystemFont, &#x27;Segoe UI&#x27;, sans-serif" font-size="11px" text-anchor="middle" transform="rotate(-90 50 306)">cumulative MAE (EUR/MWh)</text>
<path d="M 112 323.48 L 129.16 334.47 L 146.33 332.21 L 163.49 340.1 L 180.65 340.03 L 197.81 337.17 L 214.98 340.19 L 232.14 342.52 L 249.3 342.04 L 266.47 340.63 L 283.63 337.87 L 300.79 339.36 L 317.95 342.21 L 335.12 341.39 L 352.28 339.18 L 369.44 339.17 L 386.6 336.05 L 403.77 337.55 L 420.93 336.46 L 438.09 337.24 L 455.26 336.63 L 472.42 335.33 L 489.58 335.35 L 506.74 334.33 L 523.91 334.2 L 541.07 335.64 L 558.23 334.2 L 575.4 332.2 L 592.56 331.37 L 609.72 331.67 L 626.88 330.82 L 644.05 326.74 L 661.21 323.86 L 678.37 321.42 L 695.53 319.57 L 712.7 318.43 L 729.86 318.16 L 747.02 318.28 L 764.19 316.91 L 781.35 316.07 L 798.51 314.53 L 815.67 312.86 L 832.84 311.08 L 850 311.23" fill="none" stroke="#0b5563" stroke-width="2.4" stroke-linecap="round" stroke-linejoin="round" />
<circle cx="850" cy="311.23" r="3" fill="#0b5563" />
<path d="M 112 244.18 L 129.16 266.96 L 146.33 291.64 L 163.49 298.47 L 180.65 301.9 L 197.81 307 L 214.98 314.41 L 232.14 319.24 L 249.3 314.7 L 266.47 314.22 L 283.63 308.36 L 300.79 310.78 L 317.95 312.44 L 335.12 309.13 L 352.28 303.29 L 369.44 299.14 L 386.6 296.98 L 403.77 296.39 L 420.93 295.09 L 438.09 297.28 L 455.26 294.55 L 472.42 294.2 L 489.58 295.49 L 506.74 297.88 L 523.91 298.9 L 541.07 297.57 L 558.23 297.67 L 575.4 296.17 L 592.56 297.91 L 609.72 299.1 L 626.88 296.4 L 644.05 289.71 L 661.21 284.35 L 678.37 282.53 L 695.53 277.28 L 712.7 277.77 L 729.86 277.8 L 747.02 276.8 L 764.19 274.18 L 781.35 270.19 L 798.51 262.88 L 815.67 254.83 L 832.84 254.4 L 850 255.96" fill="none" stroke="#9a4f00" stroke-width="2.4" stroke-linecap="round" stroke-linejoin="round" />
<circle cx="850" cy="255.96" r="3" fill="#9a4f00" />
<path d="M 112 293.36 L 129.16 311.86 L 146.33 298.34 L 163.49 313.37 L 180.65 313.29 L 197.81 312.7 L 214.98 320.24 L 232.14 319.54 L 249.3 323.37 L 266.47 322.22 L 283.63 325.74 L 300.79 327.83 L 317.95 327.27 L 335.12 328.24 L 352.28 324.69 L 369.44 326.62 L 386.6 329.95 L 403.77 330.5 L 420.93 330.47 L 438.09 323.54 L 455.26 322.77 L 472.42 318.2 L 489.58 320.01 L 506.74 321.35 L 523.91 320.95 L 541.07 318.38 L 558.23 314.08 L 575.4 311.84 L 592.56 312.8 L 609.72 312.68 L 626.88 310.6 L 644.05 310.31 L 661.21 306.89 L 678.37 305.61 L 695.53 300.55 L 712.7 296.76 L 729.86 297.53 L 747.02 296.98 L 764.19 297.7 L 781.35 294.39 L 798.51 295.32 L 815.67 292.45 L 832.84 285.97 L 850 284.6" fill="none" stroke="#5e477e" stroke-width="2.4" stroke-linecap="round" stroke-linejoin="round" />
<circle cx="850" cy="284.6" r="3" fill="#5e477e" />
<text x="870" y="315.23" fill="#0b5563" font-family="system-ui, -apple-system, BlinkMacSystemFont, &#x27;Segoe UI&#x27;, sans-serif" font-size="12px" font-weight="600">Model (v1) · 28.22</text>
<text x="870" y="259.96" fill="#9a4f00" font-family="system-ui, -apple-system, BlinkMacSystemFont, &#x27;Segoe UI&#x27;, sans-serif" font-size="12px" font-weight="600">B1 · same-hour 7-day · 47.06</text>
<text x="870" y="288.6" fill="#5e477e" font-family="system-ui, -apple-system, BlinkMacSystemFont, &#x27;Segoe UI&#x27;, sans-serif" font-size="12px" font-weight="600">B2 · same-hour previous-day · 37.30</text>
<text x="70" y="513" fill="#1f2933" font-family="system-ui, -apple-system, BlinkMacSystemFont, &#x27;Segoe UI&#x27;, sans-serif" font-size="15px" font-weight="650">Panel B · Negative-price probability</text>
<text x="70" y="534" fill="#5b6770" font-family="system-ui, -apple-system, BlinkMacSystemFont, &#x27;Segoe UI&#x27;, sans-serif" font-size="11px">Cumulative Brier score · lower is better</text>
<text x="540" y="534" fill="#5b6770" font-family="system-ui, -apple-system, BlinkMacSystemFont, &#x27;Segoe UI&#x27;, sans-serif" font-size="11px" text-anchor="end">1056 evaluated hours · 58 negative · 107 below EUR 10</text>
<text x="70" y="549" fill="#1f2933" font-family="system-ui, -apple-system, BlinkMacSystemFont, &#x27;Segoe UI&#x27;, sans-serif" font-size="11px">Support reached: 58 negative-price hours; window open through 31 October 2026.</text>
<text x="70" y="563" fill="#5b6770" font-family="system-ui, -apple-system, BlinkMacSystemFont, &#x27;Segoe UI&#x27;, sans-serif" font-size="10px">Descriptive early sample; no reliable forecasting claim is made before the gates.</text>
<line x1="104" y1="690" x2="420" y2="690" stroke="#e8e8e4" stroke-width="0.8" />
<text x="92" y="694" fill="#5b6770" font-family="system-ui, -apple-system, BlinkMacSystemFont, &#x27;Segoe UI&#x27;, sans-serif" font-size="11px" text-anchor="end">0.000</text>
<line x1="104" y1="663.75" x2="420" y2="663.75" stroke="#e8e8e4" stroke-width="0.8" />
<text x="92" y="667.75" fill="#5b6770" font-family="system-ui, -apple-system, BlinkMacSystemFont, &#x27;Segoe UI&#x27;, sans-serif" font-size="11px" text-anchor="end">0.022</text>
<line x1="104" y1="637.5" x2="420" y2="637.5" stroke="#e8e8e4" stroke-width="0.8" />
<text x="92" y="641.5" fill="#5b6770" font-family="system-ui, -apple-system, BlinkMacSystemFont, &#x27;Segoe UI&#x27;, sans-serif" font-size="11px" text-anchor="end">0.045</text>
<line x1="104" y1="611.25" x2="420" y2="611.25" stroke="#e8e8e4" stroke-width="0.8" />
<text x="92" y="615.25" fill="#5b6770" font-family="system-ui, -apple-system, BlinkMacSystemFont, &#x27;Segoe UI&#x27;, sans-serif" font-size="11px" text-anchor="end">0.068</text>
<line x1="104" y1="585" x2="420" y2="585" stroke="#e8e8e4" stroke-width="0.8" />
<text x="92" y="589" fill="#5b6770" font-family="system-ui, -apple-system, BlinkMacSystemFont, &#x27;Segoe UI&#x27;, sans-serif" font-size="11px" text-anchor="end">0.090</text>
<line x1="104" y1="585" x2="104" y2="690" stroke="#d8d9d6" stroke-width="1" />
<line x1="104" y1="690" x2="420" y2="690" stroke="#d8d9d6" stroke-width="1" />
<line x1="104" y1="690" x2="104" y2="694" stroke="#d8d9d6" stroke-width="1" />
<text x="104" y="712" fill="#5b6770" font-family="system-ui, -apple-system, BlinkMacSystemFont, &#x27;Segoe UI&#x27;, sans-serif" font-size="11px" text-anchor="middle">3 Aug</text>
<line x1="258.33" y1="690" x2="258.33" y2="694" stroke="#d8d9d6" stroke-width="1" />
<text x="258.33" y="712" fill="#5b6770" font-family="system-ui, -apple-system, BlinkMacSystemFont, &#x27;Segoe UI&#x27;, sans-serif" font-size="11px" text-anchor="middle">24 Aug</text>
<line x1="420" y1="690" x2="420" y2="694" stroke="#d8d9d6" stroke-width="1" />
<text x="420" y="712" fill="#5b6770" font-family="system-ui, -apple-system, BlinkMacSystemFont, &#x27;Segoe UI&#x27;, sans-serif" font-size="11px" text-anchor="middle">23 Sep</text>
<text x="262" y="738" fill="#5b6770" font-family="system-ui, -apple-system, BlinkMacSystemFont, &#x27;Segoe UI&#x27;, sans-serif" font-size="11px" text-anchor="middle">scored delivery date</text>
<text x="42" y="637.5" fill="#5b6770" font-family="system-ui, -apple-system, BlinkMacSystemFont, &#x27;Segoe UI&#x27;, sans-serif" font-size="11px" text-anchor="middle" transform="rotate(-90 42 637.5)">Brier score</text>
<path d="M 104 652.87 L 111.35 669.71 L 118.7 651.6 L 126.05 652.16 L 133.4 643.72 L 140.74 646.47 L 148.09 642.17 L 155.44 643.54 L 162.79 645.31 L 170.14 643.98 L 177.49 647.42 L 184.84 650.93 L 192.19 643.59 L 199.53 645.01 L 206.88 648.01 L 214.23 650.64 L 221.58 652.55 L 228.93 654.63 L 236.28 656.49 L 243.63 655.3 L 250.98 656.54 L 258.33 658.06 L 265.67 659.43 L 273.02 660.25 L 280.37 657.47 L 287.72 657.4 L 295.07 654.37 L 302.42 655.5 L 309.77 655.56 L 317.12 656.7 L 324.47 657.78 L 331.81 658.78 L 339.16 658.08 L 346.51 658.35 L 353.86 659.26 L 361.21 660.01 L 368.56 660.83 L 375.91 661.26 L 383.26 661.87 L 390.6 662.39 L 397.95 662.25 L 405.3 658.16 L 412.65 658.9 L 420 659.61" fill="none" stroke="#0b5563" stroke-width="2.4" stroke-linecap="round" stroke-linejoin="round" />
<circle cx="420" cy="659.61" r="3" fill="#0b5563" />
<path d="M 104 658.95 L 111.35 658.95 L 118.7 638.95 L 126.05 628.96 L 133.4 634.95 L 140.74 619.99 L 148.09 613.29 L 155.44 619 L 162.79 620.91 L 170.14 624.71 L 177.49 627.83 L 184.84 630.42 L 192.19 632.62 L 199.53 634.5 L 206.88 636.13 L 214.23 637.55 L 221.58 638.81 L 228.93 639.93 L 236.28 640.93 L 243.63 639.82 L 250.98 633.98 L 258.33 635.11 L 265.67 636.15 L 273.02 637.1 L 280.37 637.97 L 287.72 629.72 L 295.07 627.85 L 302.42 629.4 L 309.77 630.85 L 317.12 632.2 L 324.47 633.47 L 331.81 634.65 L 339.16 634.88 L 346.51 635.95 L 353.86 636.97 L 361.21 637.92 L 368.56 638.83 L 375.91 639.68 L 383.26 640.5 L 390.6 637.3 L 397.95 633.23 L 405.3 634.14 L 412.65 635.01 L 420 635.83" fill="none" stroke="#9a4f00" stroke-width="2.4" stroke-linecap="round" stroke-linejoin="round" />
<circle cx="420" cy="635.83" r="3" fill="#9a4f00" />
<text x="438" y="663.61" fill="#0b5563" font-family="system-ui, -apple-system, BlinkMacSystemFont, &#x27;Segoe UI&#x27;, sans-serif" font-size="12px" font-weight="600">Model · 0.0261</text>
<text x="438" y="639.83" fill="#9a4f00" font-family="system-ui, -apple-system, BlinkMacSystemFont, &#x27;Segoe UI&#x27;, sans-serif" font-size="12px" font-weight="600">Climatology · 0.0464</text>
<text x="639" y="513" fill="#1f2933" font-family="system-ui, -apple-system, BlinkMacSystemFont, &#x27;Segoe UI&#x27;, sans-serif" font-size="15px" font-weight="650">Panel C · Interval coverage</text>
<text x="639" y="534" fill="#5b6770" font-family="system-ui, -apple-system, BlinkMacSystemFont, &#x27;Segoe UI&#x27;, sans-serif" font-size="11px">Empirical coverage against nominal reference</text>
<text x="1109" y="513" fill="#5b6770" font-family="system-ui, -apple-system, BlinkMacSystemFont, &#x27;Segoe UI&#x27;, sans-serif" font-size="11px" text-anchor="end">1056 evaluated hours</text>
<text x="639" y="549" fill="#1f2933" font-family="system-ui, -apple-system, BlinkMacSystemFont, &#x27;Segoe UI&#x27;, sans-serif" font-size="11px">Coverage alone is not utility: wider intervals can over-cover.</text>
<text x="639" y="563" fill="#5b6770" font-family="system-ui, -apple-system, BlinkMacSystemFont, &#x27;Segoe UI&#x27;, sans-serif" font-size="10px">Pinball loss and interval width remain part of Call C.</text>
<line x1="673" y1="690" x2="990" y2="690" stroke="#e8e8e4" stroke-width="0.8" />
<text x="661" y="694" fill="#5b6770" font-family="system-ui, -apple-system, BlinkMacSystemFont, &#x27;Segoe UI&#x27;, sans-serif" font-size="11px" text-anchor="end">0.00</text>
<line x1="673" y1="663.75" x2="990" y2="663.75" stroke="#e8e8e4" stroke-width="0.8" />
<text x="661" y="667.75" fill="#5b6770" font-family="system-ui, -apple-system, BlinkMacSystemFont, &#x27;Segoe UI&#x27;, sans-serif" font-size="11px" text-anchor="end">0.25</text>
<line x1="673" y1="637.5" x2="990" y2="637.5" stroke="#e8e8e4" stroke-width="0.8" />
<text x="661" y="641.5" fill="#5b6770" font-family="system-ui, -apple-system, BlinkMacSystemFont, &#x27;Segoe UI&#x27;, sans-serif" font-size="11px" text-anchor="end">0.50</text>
<line x1="673" y1="611.25" x2="990" y2="611.25" stroke="#e8e8e4" stroke-width="0.8" />
<text x="661" y="615.25" fill="#5b6770" font-family="system-ui, -apple-system, BlinkMacSystemFont, &#x27;Segoe UI&#x27;, sans-serif" font-size="11px" text-anchor="end">0.75</text>
<line x1="673" y1="585" x2="990" y2="585" stroke="#e8e8e4" stroke-width="0.8" />
<text x="661" y="589" fill="#5b6770" font-family="system-ui, -apple-system, BlinkMacSystemFont, &#x27;Segoe UI&#x27;, sans-serif" font-size="11px" text-anchor="end">1.00</text>
<line x1="673" y1="585" x2="673" y2="690" stroke="#d8d9d6" stroke-width="1" />
<line x1="673" y1="690" x2="990" y2="690" stroke="#d8d9d6" stroke-width="1" />
<line x1="673" y1="690" x2="673" y2="694" stroke="#d8d9d6" stroke-width="1" />
<text x="673" y="712" fill="#5b6770" font-family="system-ui, -apple-system, BlinkMacSystemFont, &#x27;Segoe UI&#x27;, sans-serif" font-size="11px" text-anchor="middle">3 Aug</text>
<line x1="827.81" y1="690" x2="827.81" y2="694" stroke="#d8d9d6" stroke-width="1" />
<text x="827.81" y="712" fill="#5b6770" font-family="system-ui, -apple-system, BlinkMacSystemFont, &#x27;Segoe UI&#x27;, sans-serif" font-size="11px" text-anchor="middle">24 Aug</text>
<line x1="990" y1="690" x2="990" y2="694" stroke="#d8d9d6" stroke-width="1" />
<text x="990" y="712" fill="#5b6770" font-family="system-ui, -apple-system, BlinkMacSystemFont, &#x27;Segoe UI&#x27;, sans-serif" font-size="11px" text-anchor="middle">23 Sep</text>
<text x="831.5" y="738" fill="#5b6770" font-family="system-ui, -apple-system, BlinkMacSystemFont, &#x27;Segoe UI&#x27;, sans-serif" font-size="11px" text-anchor="middle">scored delivery date</text>
<text x="611" y="637.5" fill="#5b6770" font-family="system-ui, -apple-system, BlinkMacSystemFont, &#x27;Segoe UI&#x27;, sans-serif" font-size="11px" text-anchor="middle" transform="rotate(-90 611 637.5)">coverage</text>
<line x1="673" y1="637.5" x2="990" y2="637.5" stroke="#8a9298" stroke-width="1" stroke-dasharray="4 4" />
<text x="681" y="632.5" fill="#8a9298" font-family="system-ui, -apple-system, BlinkMacSystemFont, &#x27;Segoe UI&#x27;, sans-serif" font-size="10px">50% nominal</text>
<line x1="673" y1="606" x2="990" y2="606" stroke="#8a9298" stroke-width="1" stroke-dasharray="4 4" />
<text x="681" y="601" fill="#8a9298" font-family="system-ui, -apple-system, BlinkMacSystemFont, &#x27;Segoe UI&#x27;, sans-serif" font-size="10px">80% nominal</text>
<path d="M 673 650.62 L 680.37 644.06 L 687.74 643.33 L 695.12 647.34 L 702.49 641.88 L 709.86 646.25 L 717.23 639.38 L 724.6 639.14 L 731.98 640.9 L 739.35 640.56 L 746.72 640.68 L 754.09 637.5 L 761.47 634.81 L 768.84 635.94 L 776.21 637.21 L 783.58 637.23 L 790.95 639.82 L 798.33 638.47 L 805.7 639.11 L 813.07 640.34 L 820.44 639.79 L 827.81 639.49 L 835.19 639.02 L 842.56 641.15 L 849.93 641.35 L 857.3 640.87 L 864.67 642.04 L 872.05 643.44 L 879.42 644.29 L 886.79 643.62 L 894.16 642.3 L 901.53 643.79 L 908.91 644.79 L 916.28 646.12 L 923.65 645.62 L 931.02 645.89 L 938.4 646.13 L 945.77 646.94 L 953.14 647.26 L 960.51 647.45 L 967.88 647.85 L 975.26 648.65 L 982.63 648.69 L 990 647.74" fill="none" stroke="#0b5563" stroke-width="2.4" stroke-linecap="round" stroke-linejoin="round" />
<circle cx="990" cy="647.74" r="3" fill="#0b5563" />
<path d="M 673 611.25 L 680.37 613.44 L 687.74 609.79 L 695.12 605.78 L 702.49 601.62 L 709.86 601.77 L 717.23 599.38 L 724.6 597.58 L 731.98 598.61 L 739.35 598.12 L 746.72 598.92 L 754.09 597.76 L 761.47 596.78 L 768.84 599.06 L 776.21 601.04 L 783.58 601.41 L 790.95 605.33 L 798.33 604.2 L 805.7 605.03 L 813.07 604.91 L 820.44 605.62 L 827.81 605.28 L 835.19 604.59 L 842.56 605.42 L 849.93 605.3 L 857.3 604.86 L 864.67 606.55 L 872.05 608.28 L 879.42 607.78 L 886.79 607.31 L 894.16 607.02 L 901.53 608.93 L 908.91 610.59 L 916.28 612.92 L 923.65 612.75 L 931.02 612.34 L 938.4 612.55 L 945.77 613.78 L 953.14 614.73 L 960.51 615.3 L 967.88 616.48 L 975.26 617.71 L 982.63 617.66 L 990 616.92" fill="none" stroke="#2b8790" stroke-width="2.4" stroke-linecap="round" stroke-linejoin="round" />
<circle cx="990" cy="616.92" r="3" fill="#2b8790" />
<text x="1008" y="651.74" fill="#0b5563" font-family="system-ui, -apple-system, BlinkMacSystemFont, &#x27;Segoe UI&#x27;, sans-serif" font-size="12px" font-weight="600">50% empirical · 40.2%</text>
<text x="1008" y="620.92" fill="#2b8790" font-family="system-ui, -apple-system, BlinkMacSystemFont, &#x27;Segoe UI&#x27;, sans-serif" font-size="12px" font-weight="600">80% empirical · 69.6%</text>
<line x1="48" y1="810" x2="1152" y2="810" stroke="#d8d9d6" stroke-width="1" />
<text x="48" y="833" fill="#5b6770" font-family="system-ui, -apple-system, BlinkMacSystemFont, &#x27;Segoe UI&#x27;, sans-serif" font-size="10px">Source: results/ledger.jsonl · SCORED rows only · cumulative values use scored-hour weights · missed and pending rows are excluded.</text>
<text x="48" y="850" fill="#5b6770" font-family="system-ui, -apple-system, BlinkMacSystemFont, &#x27;Segoe UI&#x27;, sans-serif" font-size="10px">Sample still accumulating; no final claim is made before the preregistered gates are reached.</text>
</svg>
